<?xml version="1.0" standalone="no"?>
<!DOCTYPE svg PUBLIC "-//W3C//DTD SVG 20010904//EN"
 "http://www.w3.org/TR/2001/REC-SVG-20010904/DTD/svg10.dtd">
<svg version="1.0" xmlns="http://www.w3.org/2000/svg"
 width="2000.000000pt" height="2000.000000pt" viewBox="0 0 2000.000000 2000.000000"
 preserveAspectRatio="xMidYMid meet">

<g transform="translate(0.000000,2000.000000) scale(0.100000,-0.100000)"
fill="#000000" stroke="none">
<path d="M10035 18733 c-115 -15 -334 -97 -465 -173 -279 -163 -573 -451 -789
-774 -108 -160 -206 -337 -416 -746 -106 -206 -218 -420 -250 -475 -258 -446
-443 -651 -805 -892 -199 -133 -404 -237 -1135 -578 -721 -336 -1140 -560
-1402 -751 -123 -89 -208 -161 -374 -316 -64 -59 -120 -108 -124 -108 -4 0
-41 27 -82 60 -199 160 -380 249 -614 302 -90 20 -130 23 -299 23 -162 -1
-213 -5 -300 -23 -395 -84 -749 -285 -1045 -593 -268 -278 -437 -579 -589
-1045 -235 -723 -488 -1885 -601 -2754 -117 -909 -150 -1923 -85 -2655 67
-744 223 -1196 557 -1610 137 -170 325 -340 496 -448 92 -59 291 -155 390
-189 90 -31 97 -32 308 -36 332 -6 367 2 708 169 l224 109 143 -137 c358 -343
540 -500 774 -669 429 -309 909 -555 1425 -730 531 -181 854 -240 1515 -279
915 -53 1119 -123 2071 -713 500 -309 798 -477 1214 -682 822 -406 1599 -669
2165 -734 551 -63 1064 -41 1404 60 335 100 583 240 786 444 101 101 175 206
235 333 65 136 75 186 75 364 0 349 -49 547 -220 888 -38 76 -70 142 -70 146
0 11 136 28 350 44 487 37 804 100 1153 231 383 143 716 386 919 670 68 96
170 291 197 379 32 103 44 250 38 465 -6 218 -16 271 -75 409 -78 180 -198
347 -387 537 -144 145 -270 249 -448 368 -64 44 -114 83 -110 87 10 9 229 44
403 64 266 31 579 102 872 199 446 148 704 300 1014 598 183 176 310 349 389
527 184 414 251 955 164 1321 -100 424 -418 769 -964 1046 -297 150 -578 249
-1082 379 -167 43 -303 81 -303 84 0 3 46 38 102 76 219 150 397 321 501 477
375 563 369 1412 -13 2028 -250 404 -756 751 -1304 895 -480 126 -972 110
-2951 -96 -1442 -150 -2126 -217 -2324 -226 l-133 -6 12 24 c18 33 131 192
265 374 543 732 810 1356 866 2021 55 655 -182 1332 -620 1774 -264 266 -563
427 -856 460 -85 9 -435 12 -500 3z m384 -694 c129 -20 261 -77 360 -153 279
-215 490 -630 532 -1045 31 -312 -59 -764 -230 -1149 -79 -179 -311 -538 -599
-927 -554 -749 -668 -945 -854 -1469 -88 -251 -147 -462 -277 -996 -39 -157
-88 -339 -111 -405 -108 -312 -240 -514 -515 -790 -245 -244 -438 -388 -670
-500 -324 -156 -646 -215 -1187 -215 -316 0 -394 -16 -469 -97 -49 -52 -65
-81 -85 -148 -43 -148 33 -324 169 -389 183 -89 848 -86 1252 5 244 56 455
129 670 234 490 239 912 612 1220 1080 215 327 319 604 441 1178 90 423 156
655 273 952 l59 150 253 7 c403 10 931 59 2539 233 1241 135 1766 175 2290
175 275 0 444 -10 591 -35 116 -20 176 -39 294 -93 475 -218 719 -525 786
-990 15 -110 6 -394 -15 -482 -92 -371 -349 -595 -895 -781 -278 -95 -819
-217 -1147 -259 -181 -23 -526 -39 -854 -40 -771 -1 -1668 -103 -1926 -220
-73 -33 -137 -94 -167 -158 -17 -38 -21 -66 -22 -152 0 -96 2 -110 27 -157 58
-108 138 -166 248 -179 67 -7 236 14 483 61 425 80 632 89 1887 82 997 -6
1187 -13 1570 -63 270 -35 702 -118 959 -185 592 -153 1029 -375 1232 -628
117 -144 134 -204 133 -461 0 -212 -15 -313 -70 -479 -136 -408 -405 -662
-924 -870 -301 -121 -673 -197 -1135 -231 -377 -28 -1199 -39 -1563 -20 -223
11 -325 28 -555 91 -517 142 -956 235 -1532 323 -608 93 -1319 161 -1620 154
-182 -4 -198 -10 -306 -117 -66 -66 -78 -83 -89 -130 -15 -64 -8 -177 15 -241
20 -57 75 -113 134 -139 87 -37 244 -60 617 -91 203 -17 448 -39 544 -50 1637
-189 3165 -641 4015 -1188 216 -140 407 -306 501 -439 295 -412 89 -856 -524
-1128 -102 -45 -313 -116 -397 -134 -262 -55 -847 -91 -1193 -72 -376 20 -492
61 -951 334 -383 227 -629 359 -985 529 -681 325 -1561 671 -1842 724 -142 26
-236 4 -306 -74 -129 -143 -139 -369 -21 -472 62 -55 335 -177 803 -360 592
-231 1030 -425 1435 -634 816 -422 1265 -776 1559 -1229 196 -301 235 -575
106 -762 -74 -107 -266 -226 -455 -280 -471 -136 -1173 -104 -1820 81 -600
173 -1192 432 -1875 822 -102 58 -347 205 -545 327 -668 411 -950 557 -1279
664 -281 92 -527 131 -1031 166 -483 33 -792 70 -990 116 -1250 296 -2415
1125 -2846 2027 -113 237 -170 455 -213 827 -37 314 -32 464 29 893 19 133 35
264 35 290 0 59 -33 114 -113 190 -80 75 -143 102 -238 102 -267 0 -365 -191
-425 -830 -27 -285 -10 -659 42 -955 27 -154 73 -321 150 -555 89 -265 103
-355 65 -409 -30 -41 -139 -104 -231 -132 -93 -29 -232 -31 -329 -5 -230 62
-443 234 -623 506 -191 287 -276 584 -334 1165 -21 218 -30 947 -15 1256 59
1191 275 2505 581 3529 191 636 319 884 594 1148 311 298 741 410 1069 277
129 -53 297 -195 310 -264 6 -30 -2 -86 -38 -251 -25 -110 -23 -277 4 -361 26
-84 81 -148 153 -180 43 -19 70 -23 143 -23 110 0 175 25 234 89 56 61 85 123
158 338 74 220 130 341 212 464 228 338 632 594 1756 1112 345 159 751 362
925 461 345 198 651 437 853 668 257 294 441 588 744 1187 214 424 328 617
472 798 268 337 605 506 910 456z"/>
</g>
</svg>
