<?xml version="1.0" standalone="no"?>
<!DOCTYPE svg PUBLIC "-//W3C//DTD SVG 20010904//EN"
 "http://www.w3.org/TR/2001/REC-SVG-20010904/DTD/svg10.dtd">
<svg version="1.0" xmlns="http://www.w3.org/2000/svg"
 width="2000.000000pt" height="2000.000000pt" viewBox="0 0 2000.000000 2000.000000"
 preserveAspectRatio="xMidYMid meet">

<g transform="translate(0.000000,2000.000000) scale(0.100000,-0.100000)"
fill="#000000" stroke="none">
<path d="M9451 18729 c-209 -25 -463 -139 -665 -298 -546 -431 -860 -1191
-797 -1935 56 -665 323 -1289 866 -2021 134 -182 247 -341 265 -374 l12 -24
-133 6 c-198 9 -882 76 -2324 226 -1718 179 -2295 210 -2720 146 -618 -94
-1248 -481 -1535 -945 -339 -545 -386 -1277 -119 -1839 122 -257 305 -458 607
-666 56 -38 102 -73 102 -76 0 -3 -136 -41 -302 -84 -505 -130 -786 -229
-1083 -379 -546 -277 -864 -622 -964 -1046 -102 -428 17 -1123 254 -1492 186
-289 544 -608 864 -772 341 -174 884 -331 1321 -381 174 -20 393 -55 403 -64
4 -4 -46 -43 -110 -87 -178 -119 -304 -223 -448 -368 -189 -190 -309 -357
-387 -537 -59 -138 -69 -191 -75 -409 -6 -215 6 -362 38 -465 27 -88 129 -283
197 -379 290 -405 791 -690 1444 -820 208 -41 356 -60 628 -81 214 -16 350
-33 350 -44 0 -4 -32 -70 -70 -146 -171 -341 -220 -539 -220 -888 0 -178 10
-228 75 -364 171 -362 520 -627 1021 -777 340 -101 853 -123 1404 -60 566 65
1343 328 2165 734 416 205 714 373 1214 682 741 460 1031 591 1451 657 159 25
290 37 620 56 661 39 984 98 1515 279 516 175 996 421 1425 730 234 169 416
326 774 669 l143 137 224 -109 c341 -167 376 -175 708 -169 211 4 218 5 308
36 99 34 298 130 390 189 235 149 473 388 635 638 272 418 389 874 438 1710
14 224 14 907 0 1165 -43 844 -131 1520 -310 2395 -190 928 -405 1676 -587
2039 -303 604 -831 1028 -1443 1158 -87 18 -138 22 -300 23 -169 0 -209 -3
-299 -23 -234 -53 -415 -142 -614 -302 -41 -33 -78 -60 -82 -60 -4 0 -60 49
-124 108 -166 155 -251 227 -374 316 -262 191 -681 415 -1402 751 -731 341
-936 445 -1135 578 -362 241 -547 446 -805 892 -32 55 -144 269 -250 475 -210
409 -308 586 -416 746 -216 323 -510 611 -789 774 -86 50 -262 125 -358 151
-67 19 -108 22 -312 25 -129 1 -268 -2 -309 -7z m424 -705 c153 -40 341 -153
474 -285 202 -198 344 -419 614 -954 475 -941 766 -1309 1337 -1692 255 -172
617 -362 1185 -624 1124 -518 1528 -774 1756 -1112 82 -123 138 -244 212 -464
73 -215 102 -277 158 -338 59 -64 124 -89 234 -89 73 0 100 4 143 23 72 32
127 96 153 180 27 84 29 251 4 361 -36 165 -44 221 -38 251 8 42 99 138 184
194 467 311 1163 26 1513 -619 254 -468 577 -1759 735 -2942 99 -735 137
-1322 128 -1988 -10 -764 -81 -1227 -237 -1551 -146 -304 -383 -561 -614 -665
-204 -93 -416 -85 -598 21 -139 81 -141 129 -24 479 77 234 123 401 150 555
52 296 69 670 42 955 -51 538 -132 756 -303 814 -73 25 -187 21 -251 -9 -61
-28 -153 -111 -194 -174 -37 -59 -36 -83 7 -383 61 -429 66 -579 29 -893 -33
-280 -67 -445 -129 -624 -337 -967 -1574 -1909 -2930 -2230 -198 -46 -507 -83
-990 -116 -504 -35 -750 -74 -1031 -166 -329 -107 -611 -253 -1279 -664 -817
-503 -1356 -778 -1935 -989 -587 -215 -1026 -308 -1520 -323 -511 -15 -922 79
-1142 261 -124 103 -171 201 -172 356 0 249 165 554 474 874 462 479 1335 963
2700 1496 468 183 741 305 803 360 118 103 108 329 -21 472 -70 78 -164 100
-306 74 -281 -53 -1161 -399 -1842 -724 -356 -170 -602 -302 -985 -529 -459
-273 -575 -314 -951 -334 -213 -11 -612 1 -873 27 -240 23 -316 38 -495 96
-534 173 -854 464 -877 800 -14 189 68 367 256 555 469 469 1545 928 2871
1227 681 153 1284 242 2064 306 373 31 530 54 617 91 59 26 114 82 134 139 23
64 30 177 15 241 -11 47 -23 64 -89 130 -108 107 -124 113 -306 117 -301 7
-1012 -61 -1620 -154 -576 -88 -1015 -181 -1532 -323 -230 -63 -332 -80 -555
-91 -364 -19 -1186 -8 -1563 20 -570 43 -986 144 -1359 331 -214 107 -402 256
-516 408 -106 141 -200 364 -236 562 -23 121 -26 437 -5 519 61 241 354 487
798 669 318 130 701 230 1225 320 520 90 720 101 1858 108 1255 7 1462 -2
1887 -82 247 -47 416 -68 483 -61 110 13 190 71 248 179 25 47 27 61 27 157
-1 86 -5 114 -22 152 -30 64 -94 125 -167 158 -258 117 -1155 219 -1926 220
-537 1 -838 26 -1219 101 -1106 218 -1553 479 -1677 979 -21 88 -30 372 -15
482 67 465 311 772 786 990 118 54 178 73 294 93 147 25 316 35 591 35 524 0
1049 -40 2290 -175 1608 -174 2136 -223 2539 -233 l253 -7 59 -150 c117 -297
183 -529 273 -952 122 -574 226 -851 441 -1178 308 -468 730 -841 1220 -1080
457 -223 935 -319 1500 -302 214 6 346 26 422 63 136 65 212 241 169 389 -20
67 -36 96 -85 148 -75 81 -153 97 -469 97 -541 0 -863 59 -1187 215 -232 112
-425 256 -670 500 -275 276 -407 478 -515 790 -23 66 -72 248 -111 405 -130
534 -189 745 -277 996 -186 524 -300 720 -854 1469 -288 389 -520 748 -599
927 -171 385 -261 837 -230 1149 42 415 253 830 532 1045 95 73 230 132 351
154 70 12 228 4 303 -16z"/>
</g>
</svg>
