<?xml version="1.0" standalone="no"?>
<!DOCTYPE svg PUBLIC "-//W3C//DTD SVG 20010904//EN"
 "http://www.w3.org/TR/2001/REC-SVG-20010904/DTD/svg10.dtd">
<svg version="1.0" xmlns="http://www.w3.org/2000/svg"
 width="2000.000000pt" height="2000.000000pt" viewBox="0 0 2000.000000 2000.000000"
 preserveAspectRatio="xMidYMid meet">

<g transform="translate(0.000000,2000.000000) scale(0.100000,-0.100000)"
fill="#000000" stroke="none">
<path d="M11710 17169 c-704 -51 -1269 -237 -2450 -804 -836 -402 -1253 -583
-1601 -695 -450 -145 -783 -295 -1124 -508 -371 -231 -703 -524 -937 -827 -30
-38 -110 -153 -178 -254 -124 -185 -174 -251 -191 -251 -5 0 -76 31 -157 69
-234 110 -364 141 -589 141 -175 0 -293 -23 -462 -92 -480 -194 -848 -663
-1077 -1372 -200 -624 -302 -1405 -320 -2466 -22 -1242 141 -2388 438 -3090
259 -611 667 -1050 1116 -1200 149 -49 242 -64 402 -64 155 0 244 13 393 60
62 20 85 23 103 15 34 -15 92 -108 207 -328 159 -305 234 -422 405 -638 113
-142 334 -365 485 -490 789 -652 1907 -1090 3418 -1339 946 -156 1419 -191
2744 -202 768 -7 1279 4 1427 30 104 19 237 63 373 123 471 208 796 631 884
1149 44 265 50 524 14 702 l-17 82 25 25 c13 14 99 56 189 94 312 131 504 257
714 467 420 419 646 1011 596 1554 -12 134 -58 381 -90 483 -11 34 -20 80 -20
101 0 37 6 45 87 120 141 130 246 239 315 328 200 256 377 588 462 868 53 176
61 250 61 570 -1 505 -43 685 -247 1048 -92 166 -159 264 -233 342 -34 36 -65
73 -68 83 -11 31 17 90 108 228 167 252 251 448 299 694 53 276 57 711 10 944
-53 263 -224 610 -425 861 -203 256 -507 465 -904 623 -283 113 -524 165 -796
174 l-177 6 -5 256 c-5 272 -20 397 -71 591 -79 304 -242 621 -440 859 -95
113 -281 289 -403 380 -397 296 -863 475 -1393 537 -162 18 -716 27 -900 13z
m718 -699 c340 -19 711 -130 994 -299 439 -262 720 -698 777 -1206 15 -130 33
-446 27 -453 -3 -3 -106 -24 -229 -48 -269 -51 -382 -78 -637 -150 -347 -98
-692 -220 -849 -298 -121 -62 -176 -148 -176 -281 0 -104 34 -182 109 -254
136 -128 190 -124 731 44 402 124 625 182 910 234 541 99 1032 96 1400 -7 296
-82 482 -189 686 -392 164 -163 242 -276 307 -446 65 -170 90 -385 72 -619
-23 -301 -84 -482 -224 -670 -29 -39 -125 -148 -214 -243 -96 -103 -170 -191
-183 -219 -45 -93 -36 -215 23 -302 18 -25 113 -129 213 -231 100 -102 206
-219 237 -260 123 -167 199 -332 239 -521 31 -139 33 -427 6 -563 -90 -442
-347 -807 -792 -1121 -140 -98 -191 -147 -221 -210 -43 -90 -28 -194 57 -407
63 -158 88 -233 116 -358 23 -98 26 -139 27 -285 1 -187 -13 -275 -65 -418
-62 -173 -147 -304 -293 -454 -119 -125 -226 -203 -371 -274 -137 -67 -255
-100 -437 -124 -309 -41 -378 -65 -448 -158 -96 -126 -92 -283 11 -489 91
-182 122 -307 122 -498 0 -280 -82 -505 -248 -679 -156 -163 -341 -238 -675
-273 -172 -18 -1500 -18 -1840 0 -1423 75 -2480 247 -3400 553 -338 112 -760
296 -1021 445 -421 240 -765 534 -1007 860 -211 286 -406 735 -449 1035 -25
178 -26 839 0 1048 31 260 23 305 -79 411 -75 79 -118 95 -249 94 -293 -1
-356 -146 -410 -950 -25 -378 -45 -451 -133 -511 -76 -50 -284 -76 -392 -48
-590 153 -981 1089 -1095 2625 -23 296 -30 959 -16 1310 52 1273 209 2026 518
2494 77 118 239 284 325 335 188 110 363 125 535 46 76 -35 166 -99 219 -157
l31 -33 12 -615 c10 -608 16 -698 47 -795 31 -96 101 -158 223 -195 80 -25
132 -25 213 0 95 29 151 82 179 168 21 64 23 90 30 587 7 509 12 592 45 745
63 298 221 633 427 909 85 115 319 351 438 443 344 266 760 474 1369 683 412
142 754 291 1472 641 937 457 1454 659 1928 754 252 50 698 71 1078 50z"/>
</g>
</svg>
