<?xml version="1.0" standalone="no"?>
<!DOCTYPE svg PUBLIC "-//W3C//DTD SVG 20010904//EN"
 "http://www.w3.org/TR/2001/REC-SVG-20010904/DTD/svg10.dtd">
<svg version="1.0" xmlns="http://www.w3.org/2000/svg"
 width="2000.000000pt" height="2000.000000pt" viewBox="0 0 2000.000000 2000.000000"
 preserveAspectRatio="xMidYMid meet">

<g transform="translate(0.000000,2000.000000) scale(0.100000,-0.100000)"
fill="#000000" stroke="none">
<path d="M7549 17169 c-602 -41 -1121 -226 -1564 -559 -114 -86 -300 -262
-391 -371 -198 -238 -361 -555 -440 -859 -51 -194 -66 -319 -71 -591 l-5 -256
-177 -6 c-272 -9 -513 -61 -796 -174 -397 -158 -701 -367 -904 -623 -201 -251
-372 -598 -425 -861 -47 -233 -43 -668 10 -944 48 -246 132 -442 299 -694 91
-138 119 -197 108 -228 -3 -10 -34 -47 -68 -83 -74 -78 -141 -176 -233 -342
-204 -363 -246 -543 -247 -1048 0 -320 8 -394 61 -570 85 -280 262 -612 462
-868 69 -89 174 -198 315 -328 81 -75 87 -83 87 -120 0 -21 -9 -67 -20 -101
-32 -102 -78 -349 -90 -483 -50 -543 176 -1135 596 -1554 210 -210 402 -336
714 -467 90 -38 176 -80 189 -94 l25 -25 -17 -82 c-36 -178 -30 -437 14 -702
88 -518 413 -941 884 -1149 136 -60 269 -104 373 -123 148 -26 659 -37 1427
-30 1144 10 1568 33 2250 127 1799 245 3041 694 3912 1414 151 125 372 348
485 490 171 216 246 333 405 638 115 220 173 313 207 328 18 8 41 5 103 -15
149 -47 238 -60 393 -60 160 0 253 15 402 64 449 150 857 589 1116 1200 297
702 460 1848 438 3090 -23 1369 -191 2312 -527 2970 -109 215 -216 367 -363
519 -231 237 -469 368 -784 431 -78 15 -304 12 -405 -5 -128 -23 -205 -49
-369 -126 -81 -38 -152 -69 -157 -69 -17 0 -67 66 -191 251 -68 101 -148 216
-178 254 -234 303 -566 596 -937 827 -341 213 -674 363 -1124 508 -348 112
-765 293 -1601 695 -1197 575 -1756 757 -2475 805 -172 11 -545 11 -716 -1z
m831 -710 c500 -41 1100 -258 2198 -793 718 -350 1060 -499 1472 -641 609
-209 1025 -417 1369 -683 119 -92 353 -328 438 -443 206 -276 364 -611 427
-909 33 -153 38 -236 45 -745 7 -497 9 -523 30 -587 28 -86 84 -139 179 -168
81 -25 133 -25 213 0 122 37 192 99 223 195 31 97 37 187 47 795 l12 615 31
33 c136 147 336 226 507 202 147 -21 264 -86 405 -225 285 -282 468 -744 578
-1455 128 -833 152 -2085 56 -2938 -121 -1070 -401 -1813 -793 -2104 -189
-140 -341 -174 -554 -124 -183 43 -208 101 -238 550 -31 464 -64 676 -123 792
-60 117 -133 158 -287 158 -131 1 -174 -15 -249 -94 -102 -106 -110 -151 -79
-411 26 -209 25 -870 0 -1048 -43 -300 -238 -749 -449 -1035 -242 -326 -586
-620 -1007 -860 -261 -149 -683 -333 -1021 -445 -920 -306 -1977 -478 -3400
-553 -340 -18 -1668 -18 -1840 0 -334 35 -519 110 -675 273 -166 174 -248 399
-248 679 0 191 31 316 122 498 103 206 107 363 11 489 -70 93 -139 117 -448
158 -182 24 -300 57 -437 124 -145 71 -252 149 -371 274 -146 150 -231 281
-293 454 -52 143 -66 231 -65 418 1 231 30 361 143 643 85 213 100 317 57 407
-30 63 -81 112 -221 210 -445 314 -702 679 -792 1121 -27 136 -25 424 6 563
40 189 116 354 239 521 31 41 137 158 237 260 100 102 195 206 213 231 59 87
68 209 23 302 -13 28 -87 116 -183 219 -89 95 -185 204 -214 243 -140 188
-201 369 -224 670 -28 358 35 621 209 875 66 97 281 306 382 372 302 197 654
288 1119 288 336 0 613 -34 1019 -126 204 -46 323 -79 646 -179 541 -168 595
-172 731 -44 75 72 109 150 109 254 0 133 -55 219 -176 281 -157 78 -502 200
-849 298 -255 72 -368 99 -637 150 -123 24 -226 45 -229 48 -6 7 12 323 27
453 57 508 338 944 777 1206 270 161 657 280 967 299 166 10 659 4 835 -11z"/>
</g>
</svg>
