<?xml version="1.0" standalone="no"?>
<!DOCTYPE svg PUBLIC "-//W3C//DTD SVG 20010904//EN"
 "http://www.w3.org/TR/2001/REC-SVG-20010904/DTD/svg10.dtd">
<svg version="1.0" xmlns="http://www.w3.org/2000/svg"
 width="2000.000000pt" height="2000.000000pt" viewBox="0 0 2000.000000 2000.000000"
 preserveAspectRatio="xMidYMid meet">

<g transform="translate(0.000000,2000.000000) scale(0.100000,-0.100000)"
fill="#000000" stroke="none">
<path d="M8650 17189 c-540 -47 -1561 -235 -2150 -394 -562 -153 -931 -288
-1350 -496 -228 -113 -488 -263 -613 -353 -159 -113 -466 -386 -709 -629 -165
-165 -264 -278 -338 -384 -23 -35 -44 -63 -45 -63 -2 0 -43 34 -91 76 -214
184 -386 275 -604 319 -106 22 -393 31 -505 16 -111 -15 -179 -37 -322 -106
-412 -196 -721 -533 -998 -1087 -421 -843 -672 -2056 -777 -3758 -16 -269 -16
-1085 0 -1295 50 -632 127 -1067 261 -1486 160 -497 367 -848 674 -1146 228
-220 398 -310 659 -349 87 -12 163 -15 347 -12 274 6 279 7 526 118 83 37 164
72 181 78 l31 10 94 -146 c311 -484 599 -814 1004 -1152 666 -554 1440 -944
2275 -1144 400 -96 773 -136 1280 -136 l265 0 120 -91 c341 -260 771 -490
1181 -632 232 -81 622 -127 1075 -127 348 0 518 23 764 104 387 128 686 317
935 592 167 184 280 384 366 649 l52 160 214 47 c226 50 404 105 552 170 488
213 897 577 1080 961 133 279 190 583 166 889 -25 322 -112 587 -297 908 -78
135 -116 211 -109 217 3 3 168 -9 368 -26 697 -60 1010 -73 1823 -73 983 -1
1342 23 1894 128 715 135 1112 312 1436 639 247 248 403 563 467 944 28 166
30 452 5 624 -73 493 -297 938 -643 1279 -171 168 -302 263 -509 368 -431 220
-980 329 -1982 396 -145 10 -263 21 -263 25 0 4 10 11 23 15 41 13 431 210
512 258 403 244 767 565 982 864 215 299 326 718 293 1104 -42 491 -242 922
-591 1269 -203 202 -395 327 -679 443 -824 334 -2044 343 -3485 25 -453 -100
-945 -241 -1519 -436 -165 -56 -222 -71 -225 -61 -16 48 -270 533 -327 623
-459 727 -1096 1130 -1974 1251 -138 19 -643 27 -800 13z m690 -714 c178 -25
309 -55 460 -105 420 -137 737 -380 987 -755 111 -167 187 -310 309 -584 179
-404 356 -646 983 -1340 106 -119 234 -264 283 -324 315 -387 312 -506 -26
-805 -339 -302 -681 -474 -1088 -548 -119 -22 -387 -30 -500 -15 -404 53 -735
236 -1114 615 -367 368 -582 720 -668 1097 -43 185 -105 272 -234 325 -76 32
-188 33 -267 3 -143 -53 -188 -152 -205 -444 -19 -321 -45 -458 -120 -628 -93
-214 -197 -364 -370 -537 -287 -287 -601 -444 -1078 -539 -109 -22 -224 -49
-255 -61 -73 -28 -145 -93 -188 -172 -70 -131 -36 -262 105 -396 92 -87 124
-96 283 -81 376 35 642 110 965 271 266 133 472 281 679 488 137 137 198 212
309 380 139 209 150 223 168 208 8 -7 46 -53 83 -103 267 -355 689 -695 1165
-938 116 -59 219 -116 228 -126 16 -17 15 -21 -9 -67 -24 -45 -26 -57 -23
-139 5 -112 38 -188 124 -287 l59 -67 60 0 c33 0 213 4 400 9 504 14 955 43
2255 145 908 71 1456 105 1980 125 343 13 1362 13 1645 0 782 -36 1289 -129
1641 -301 419 -204 745 -715 783 -1228 20 -266 -46 -549 -170 -732 -278 -413
-830 -593 -2129 -696 -273 -21 -1133 -24 -1490 -5 -606 34 -1072 71 -1870 152
l-575 57 -117 71 c-714 432 -1314 696 -2059 906 -302 85 -437 112 -742 146
-516 57 -1013 50 -1287 -20 -359 -91 -626 -243 -885 -504 -280 -282 -474 -610
-550 -929 -77 -324 -51 -590 99 -1023 25 -72 46 -137 46 -144 0 -7 -64 -79
-142 -159 -161 -167 -235 -264 -313 -413 -115 -219 -159 -409 -159 -678 0
-331 62 -565 261 -985 52 -110 97 -206 100 -214 5 -12 -14 -13 -123 -7 -345
20 -952 167 -1354 328 -383 154 -819 402 -1146 654 -241 184 -520 449 -692
656 -373 449 -630 974 -736 1504 -48 242 -60 362 -60 629 -1 305 9 394 84 800
11 61 23 165 27 231 5 112 4 126 -16 167 -66 137 -259 218 -412 174 -176 -52
-273 -233 -328 -617 -30 -206 -41 -409 -41 -779 0 -487 14 -632 91 -929 21
-84 39 -172 39 -195 0 -80 -44 -124 -196 -201 -193 -97 -367 -102 -553 -15
-377 175 -667 739 -806 1562 -131 784 -136 1761 -14 2887 167 1547 535 2658
1036 3131 164 154 348 239 519 239 146 0 268 -61 392 -196 109 -118 136 -194
113 -313 -6 -33 -56 -194 -111 -358 -200 -604 -331 -1246 -371 -1818 -16 -236
-9 -398 21 -459 24 -51 121 -136 197 -175 120 -60 311 7 390 138 54 90 72 192
118 665 83 858 336 1676 690 2235 574 906 1485 1478 2942 1846 626 159 1436
295 1948 329 110 7 419 -4 525 -19z m6491 -1155 c874 -69 1405 -368 1622 -915
104 -262 127 -511 66 -735 -26 -98 -114 -277 -180 -365 -69 -92 -264 -286
-364 -362 -676 -511 -1821 -900 -3451 -1172 -271 -45 -792 -122 -995 -146
-282 -34 -290 -16 -62 140 229 157 311 222 449 360 248 249 369 495 381 775
10 243 -52 438 -220 690 -115 173 -250 332 -641 758 -143 156 -266 291 -273
302 -12 17 -11 21 16 34 76 40 624 212 1001 315 582 159 1308 282 1880 320
186 12 617 12 771 1z m-6226 -6540 c320 -17 550 -53 900 -141 613 -155 1395
-509 1975 -895 240 -159 392 -279 552 -433 230 -221 357 -402 441 -626 94
-249 101 -517 21 -754 -103 -303 -399 -592 -765 -744 -448 -187 -972 -197
-1624 -31 -318 81 -580 182 -930 356 -1011 505 -1879 1203 -2130 1713 -64 131
-91 222 -106 364 -25 233 42 415 259 704 306 407 653 527 1407 487z m-1582
-2671 c279 -243 540 -442 887 -674 789 -528 1530 -861 2270 -1019 198 -43 250
-59 280 -91 43 -46 13 -118 -120 -286 -167 -212 -489 -425 -700 -463 -325 -58
-831 -67 -1105 -20 -530 91 -1042 371 -1419 776 -301 325 -486 642 -583 998
-13 50 -17 105 -18 235 0 149 3 180 23 250 46 157 108 255 232 361 47 41 86
74 88 74 2 0 76 -64 165 -141z"/>
</g>
</svg>
