<?xml version="1.0" standalone="no"?>
<!DOCTYPE svg PUBLIC "-//W3C//DTD SVG 20010904//EN"
 "http://www.w3.org/TR/2001/REC-SVG-20010904/DTD/svg10.dtd">
<svg version="1.0" xmlns="http://www.w3.org/2000/svg"
 width="2000.000000pt" height="2000.000000pt" viewBox="0 0 2000.000000 2000.000000"
 preserveAspectRatio="xMidYMid meet">

<g transform="translate(0.000000,2000.000000) scale(0.100000,-0.100000)"
fill="#000000" stroke="none">
<path d="M10730 17193 c-679 -49 -1267 -295 -1701 -710 -269 -259 -429 -485
-649 -918 -70 -137 -129 -256 -131 -263 -3 -10 -60 5 -225 61 -1340 455 -2434
667 -3433 667 -926 0 -1603 -178 -2085 -548 -148 -114 -359 -352 -465 -525
-298 -488 -376 -1070 -211 -1577 43 -129 137 -316 213 -422 215 -299 579 -620
982 -864 81 -48 471 -245 513 -258 12 -4 22 -11 22 -15 0 -4 -118 -15 -262
-25 -1003 -67 -1552 -176 -1983 -396 -207 -105 -338 -200 -509 -368 -346 -341
-570 -786 -643 -1279 -25 -172 -23 -458 5 -624 64 -381 220 -696 467 -944 324
-327 721 -504 1436 -639 552 -105 911 -129 1894 -128 813 0 1126 13 1823 73
200 17 365 29 368 26 7 -6 -31 -82 -109 -217 -287 -498 -368 -971 -253 -1462
66 -278 214 -544 426 -762 132 -136 229 -216 385 -320 287 -191 545 -296 943
-384 l214 -47 52 -160 c86 -265 199 -465 366 -649 249 -275 548 -464 935 -592
246 -81 416 -104 764 -104 453 0 843 46 1075 127 410 142 840 372 1181 632
l120 91 265 0 c507 0 880 40 1280 136 835 200 1609 590 2275 1144 405 338 693
668 1004 1152 l94 146 31 -10 c17 -6 99 -41 181 -78 247 -111 252 -112 526
-118 184 -3 260 0 347 12 261 39 431 129 659 349 307 298 514 649 674 1146
134 419 211 854 261 1486 16 210 16 1026 0 1295 -105 1702 -356 2915 -777
3758 -277 554 -586 891 -998 1087 -143 69 -211 91 -322 106 -112 15 -399 6
-505 -16 -218 -44 -390 -135 -604 -319 -48 -42 -89 -76 -91 -76 -1 0 -22 28
-45 63 -74 106 -173 219 -338 384 -243 243 -550 516 -709 629 -125 90 -385
240 -613 353 -419 208 -788 343 -1350 496 -609 165 -1642 353 -2174 395 -117
9 -486 11 -596 3z m682 -718 c475 -47 1195 -176 1721 -310 1457 -368 2368
-940 2942 -1846 354 -559 607 -1377 690 -2235 46 -473 64 -575 118 -665 79
-131 270 -198 390 -138 76 39 173 124 197 175 68 139 15 777 -116 1409 -62
299 -133 562 -234 868 -55 164 -105 325 -111 358 -23 119 4 195 113 313 198
215 414 253 682 120 92 -46 145 -84 229 -163 626 -591 1043 -2191 1119 -4298
17 -488 -4 -1031 -58 -1453 -96 -761 -299 -1324 -590 -1638 -188 -204 -426
-290 -653 -237 -67 16 -223 90 -279 132 -47 35 -72 81 -72 130 0 23 18 111 39
195 77 297 91 442 91 929 0 370 -11 573 -41 779 -55 384 -152 565 -328 617
-153 44 -346 -37 -412 -174 -20 -41 -21 -55 -16 -167 4 -66 16 -170 27 -231
75 -406 85 -495 84 -800 0 -267 -12 -387 -60 -629 -106 -530 -363 -1055 -736
-1504 -172 -207 -451 -472 -692 -656 -327 -252 -763 -500 -1146 -654 -402
-161 -1009 -308 -1354 -328 -109 -6 -128 -5 -123 7 3 8 48 104 100 214 199
420 261 654 261 985 0 269 -44 459 -159 678 -78 149 -152 246 -312 413 -79 80
-143 152 -143 159 0 7 21 72 46 144 150 433 176 699 99 1023 -108 455 -479
952 -905 1216 -201 124 -474 220 -720 253 -387 51 -1144 8 -1579 -92 -129 -30
-457 -126 -650 -191 -601 -202 -1065 -420 -1669 -785 l-117 -71 -575 -57
c-798 -81 -1264 -118 -1870 -152 -357 -19 -1217 -16 -1490 5 -1299 103 -1851
283 -2129 696 -124 183 -190 466 -170 732 32 426 273 874 602 1120 222 164
594 284 1089 349 403 52 783 70 1533 70 896 0 1406 -24 2825 -135 1300 -102
1751 -131 2255 -145 187 -5 367 -9 400 -9 l60 0 59 67 c86 99 119 175 124 287
3 82 1 94 -23 139 -24 46 -25 50 -9 67 9 10 112 67 228 126 476 243 898 583
1165 938 37 50 75 96 83 103 18 15 29 1 168 -208 111 -168 172 -243 309 -380
207 -207 413 -355 679 -488 323 -161 589 -236 965 -271 159 -15 191 -6 283 81
97 92 138 171 138 267 1 57 -4 75 -33 129 -43 79 -115 144 -188 172 -31 12
-146 39 -255 61 -477 95 -791 252 -1078 539 -173 173 -277 323 -370 537 -75
170 -101 307 -120 628 -17 292 -62 391 -205 444 -79 30 -191 29 -267 -3 -129
-53 -191 -140 -234 -325 -86 -377 -301 -729 -668 -1097 -379 -379 -710 -562
-1114 -615 -113 -15 -381 -7 -500 15 -407 74 -749 246 -1088 548 -338 299
-341 418 -26 805 49 60 177 205 283 324 627 694 804 936 983 1340 196 441 347
679 571 904 325 326 788 515 1370 559 91 7 411 -4 567 -19z m-6497 -1155 c598
-38 1309 -158 1905 -321 377 -103 925 -275 1001 -315 27 -13 28 -17 16 -34 -7
-11 -130 -146 -273 -302 -474 -516 -610 -686 -733 -909 -161 -295 -174 -618
-35 -917 61 -132 158 -267 288 -397 138 -138 220 -203 449 -360 228 -156 220
-174 -62 -140 -203 24 -724 101 -995 146 -1630 272 -2775 661 -3451 1172 -100
76 -295 270 -364 362 -66 88 -154 267 -180 365 -61 224 -38 473 66 735 215
542 748 846 1603 914 153 12 581 13 765 1z m6091 -6555 c399 -53 659 -237 919
-650 114 -183 156 -342 136 -526 -29 -273 -137 -481 -402 -774 -548 -607
-1723 -1344 -2549 -1598 -646 -199 -1211 -231 -1665 -95 -444 133 -819 457
-939 809 -111 328 -52 709 160 1029 116 175 331 397 550 568 491 384 1260 785
1929 1007 420 140 828 222 1215 244 194 12 499 5 646 -14z m1219 -2584 c125
-106 191 -208 237 -366 20 -70 23 -101 23 -250 -1 -130 -5 -185 -18 -235 -97
-356 -282 -673 -583 -998 -377 -405 -889 -685 -1419 -776 -274 -47 -780 -38
-1105 20 -211 38 -533 251 -700 463 -133 168 -163 240 -120 286 30 32 82 48
280 91 407 87 783 215 1213 415 631 292 1388 790 1937 1273 91 80 167 145 169
145 2 1 41 -30 86 -68z"/>
</g>
</svg>
